<svg width="657" height="198" viewBox="0 0 657 198" fill="none" xmlns="http://www.w3.org/2000/svg">
<path d="M406.886 154.684C368.81 182.749 313.62 197.723 266.103 197.723C199.477 197.723 139.496 173.08 94.1179 132.095C90.5528 128.872 93.7471 124.479 98.0254 126.989C146.997 155.482 207.548 172.624 270.096 172.624C312.28 172.624 358.684 163.896 401.353 145.785C407.799 143.047 413.189 150.006 406.886 154.684Z" fill="#737373"/>
<path d="M422.716 136.572C417.867 130.355 390.543 133.635 378.279 135.089C374.543 135.546 373.972 132.294 377.338 129.955C399.1 114.639 434.809 119.06 438.973 124.194C443.137 129.357 437.889 165.151 417.439 182.236C414.302 184.86 411.307 183.462 412.705 179.982C417.297 168.517 427.593 142.819 422.716 136.572Z" fill="#737373"/>
<path d="M379.135 21.83V6.94173C379.135 4.68852 380.846 3.17688 382.9 3.17688H449.555C451.694 3.17688 453.405 4.71705 453.405 6.94173V19.6909C453.377 21.83 451.58 24.6251 448.385 29.046L413.845 78.3599C426.68 78.0461 440.228 79.9571 451.865 86.5171C454.489 88.0002 455.202 90.1678 455.402 92.307V108.193C455.402 110.361 453.006 112.9 450.496 111.588C429.989 100.835 402.751 99.6655 380.076 111.702C377.766 112.957 375.341 110.447 375.341 108.279V93.1911C375.341 90.7668 375.37 86.6311 377.794 82.9518L417.81 25.5663H382.985C380.846 25.5663 379.135 24.0547 379.135 21.83Z" fill="#737373"/>
<path d="M135.988 114.725H115.709C113.769 114.582 112.229 113.128 112.086 111.274V7.19851C112.086 5.11643 113.826 3.46216 115.994 3.46216H134.904C136.872 3.54767 138.44 5.05937 138.583 6.94179V20.5466H138.954C143.888 7.39814 153.158 1.26599 165.65 1.26599C178.342 1.26599 186.271 7.39814 191.975 20.5466C196.881 7.39814 208.033 1.26599 219.984 1.26599C228.483 1.26599 237.781 4.77415 243.457 12.6461C249.874 21.4023 248.562 34.1229 248.562 45.2749L248.534 110.96C248.534 113.042 246.794 114.725 244.626 114.725H224.376C222.351 114.582 220.725 112.957 220.725 110.96V55.7993C220.725 51.407 221.125 40.4547 220.155 36.2905C218.643 29.3028 214.108 27.3347 208.233 27.3347C203.327 27.3347 198.193 30.6147 196.111 35.8627C194.029 41.1107 194.229 49.8953 194.229 55.7993V110.96C194.229 113.042 192.489 114.725 190.321 114.725H170.071C168.017 114.582 166.42 112.957 166.42 110.96L166.392 55.7993C166.392 44.191 168.303 27.1066 153.899 27.1066C139.325 27.1066 139.895 43.7632 139.895 55.7993V110.96C139.895 113.042 138.155 114.725 135.988 114.725Z" fill="#737373"/>
<path d="M510.79 1.26599C540.881 1.26599 557.167 27.1066 557.167 59.9635C557.167 91.708 539.169 116.893 510.79 116.893C481.242 116.893 465.156 91.0521 465.156 58.8511C465.156 26.4506 481.442 1.26599 510.79 1.26599ZM510.962 22.5146C496.016 22.5146 495.075 42.879 495.075 55.5712C495.075 68.2918 494.875 95.4444 510.79 95.4444C526.506 95.4444 527.247 73.5398 527.247 60.1917C527.247 51.407 526.877 40.9111 524.224 32.5827C521.942 25.3383 517.407 22.5146 510.962 22.5146Z" fill="#737373"/>
<path d="M596.184 114.725H575.991C573.966 114.582 572.34 112.957 572.34 110.96L572.312 6.85623C572.483 4.94528 574.165 3.46216 576.219 3.46216H595.015C596.783 3.54767 598.238 4.74563 598.637 6.37137V22.2864H599.008C604.684 8.05414 612.641 1.26599 626.645 1.26599C635.744 1.26599 644.614 4.54598 650.318 13.5303C655.623 21.8586 655.623 35.8627 655.623 45.9308V111.445C655.395 113.27 653.712 114.725 651.716 114.725H631.38C629.526 114.582 627.986 113.213 627.786 111.445V54.9152C627.786 43.535 629.098 26.8784 615.094 26.8784C610.16 26.8784 605.625 30.1869 603.372 35.2067C600.519 41.5671 600.149 47.8989 600.149 54.9152V110.96C600.12 113.042 598.352 114.725 596.184 114.725Z" fill="#737373"/>
<path d="M325.999 65.0118V60.6195C311.339 60.6195 295.852 63.7568 295.852 81.0409C295.852 89.7971 300.386 95.7296 308.173 95.7296C313.877 95.7296 318.983 92.2214 322.206 86.5171C326.199 79.5008 325.999 72.9123 325.999 65.0118ZM346.449 114.44C345.108 115.638 343.169 115.723 341.657 114.925C334.926 109.334 333.728 106.739 330.02 101.405C318.897 112.757 311.025 116.151 296.593 116.151C279.537 116.151 266.246 105.627 266.246 84.5491C266.246 68.0921 275.173 56.8831 287.865 51.407C298.875 46.5583 314.248 45.7027 325.999 44.3621V41.7381C325.999 36.918 326.37 31.2137 323.546 27.0495C321.065 23.3132 316.33 21.773 312.166 21.773C304.437 21.773 297.534 25.7375 295.852 33.9517C295.509 35.7771 294.169 37.574 292.343 37.6596L272.663 35.5489C271.009 35.1782 269.184 33.8376 269.64 31.2992C274.175 7.45517 295.709 0.2677 314.99 0.2677C324.858 0.2677 337.75 2.89169 345.536 10.3644C355.405 19.5768 354.463 31.8697 354.463 45.2463V76.8483C354.463 86.346 358.399 90.5101 362.107 95.644C363.419 97.4694 363.704 99.6656 362.05 101.035C357.915 104.486 350.556 110.903 346.506 114.497L346.449 114.44Z" fill="#737373"/>
<path d="M60.1488 65.0118V60.6195C45.4887 60.6195 30.0014 63.7568 30.0014 81.0409C30.0014 89.7971 34.5364 95.7296 42.3228 95.7296C48.0271 95.7296 53.1325 92.2214 56.3554 86.5171C60.3484 79.5008 60.1488 72.9123 60.1488 65.0118ZM80.5988 114.44C79.2583 115.638 77.3188 115.723 75.8071 114.925C69.0761 109.334 67.8781 106.739 64.1703 101.405C53.0469 112.757 45.1749 116.151 30.743 116.151C13.6871 116.151 0.395996 105.627 0.395996 84.5491C0.395996 68.0921 9.32326 56.8831 22.0154 51.407C33.0247 46.5583 48.3979 45.7027 60.1488 44.3621V41.7381C60.1488 36.918 60.5196 31.2137 57.6959 27.0495C55.2145 23.3132 50.48 21.773 46.3158 21.773C38.5864 21.773 31.6842 25.7375 30.0014 33.9517C29.6592 35.7771 28.3187 37.574 26.4933 37.6596L6.81336 35.5489C5.1591 35.1782 3.33372 33.8376 3.79006 31.2992C8.325 7.45517 29.8588 0.2677 49.1394 0.2677C59.0079 0.2677 71.8997 2.89169 79.6861 10.3644C89.5546 19.5768 88.6134 31.8697 88.6134 45.2463V76.8483C88.6134 86.346 92.5494 90.5101 96.2572 95.644C97.5692 97.4694 97.8544 99.6656 96.2001 101.035C92.0645 104.486 84.7059 110.903 80.6558 114.497L80.5988 114.44Z" fill="#737373"/>
</svg>
