<svg width="620" height="128" viewBox="0 0 620 128" fill="none" xmlns="http://www.w3.org/2000/svg">
<path fill-rule="evenodd" clip-rule="evenodd" d="M12.1718 33.1998C7.89801 36.0645 5.33337 40.8711 5.33337 46.0163V81.9838C5.33337 87.1289 7.89801 91.9355 12.1718 94.8002L55.4091 123.782C60.6066 127.266 67.3935 127.266 72.591 123.782L115.828 94.8002C120.102 91.9355 122.667 87.1289 122.667 81.9838V46.0162C122.667 40.8711 120.102 36.0645 115.828 33.1998L72.591 4.2176C67.3935 0.733699 60.6066 0.733701 55.4091 4.2176L12.1718 33.1998ZM23.8539 49.4875C23.0969 49.0334 22.1152 49.2789 21.661 50.0359C21.2069 50.7928 21.4524 51.7746 22.2094 52.2287L62.4017 76.341V105.257C62.4017 106.14 63.1172 106.855 64 106.855C64.8827 106.855 65.5983 106.14 65.5983 105.257V76.341L105.791 52.2287C106.547 51.7746 106.793 50.7928 106.339 50.0359C105.885 49.2789 104.903 49.0334 104.146 49.4875L64 73.5721L23.8539 49.4875Z" fill="#34DAFF"/>
<path d="M202.348 31.2727V104H189.173V31.2727H202.348ZM216.047 104V49.4545H228.511V58.5455H229.079C230.074 55.3968 231.778 52.9702 234.193 51.2656C236.631 49.5374 239.413 48.6733 242.538 48.6733C243.248 48.6733 244.041 48.7088 244.917 48.7798C245.817 48.8272 246.563 48.91 247.154 49.0284V60.8537C246.61 60.6643 245.746 60.4986 244.562 60.3565C243.402 60.1908 242.278 60.108 241.189 60.108C238.845 60.108 236.738 60.6169 234.868 61.6349C233.021 62.6293 231.565 64.0142 230.5 65.7898C229.434 67.5653 228.902 69.6132 228.902 71.9332V104H216.047ZM277.241 105.065C271.915 105.065 267.298 103.893 263.392 101.55C259.486 99.206 256.455 95.9271 254.301 91.7131C252.17 87.4991 251.105 82.5748 251.105 76.9403C251.105 71.3059 252.17 66.3698 254.301 62.1321C256.455 57.8944 259.486 54.6037 263.392 52.2599C267.298 49.9162 271.915 48.7443 277.241 48.7443C282.568 48.7443 287.185 49.9162 291.091 52.2599C294.997 54.6037 298.016 57.8944 300.146 62.1321C302.301 66.3698 303.378 71.3059 303.378 76.9403C303.378 82.5748 302.301 87.4991 300.146 91.7131C298.016 95.9271 294.997 99.206 291.091 101.55C287.185 103.893 282.568 105.065 277.241 105.065ZM277.312 94.767C280.201 94.767 282.616 93.974 284.557 92.3878C286.498 90.7779 287.942 88.6236 288.889 85.9247C289.86 83.2259 290.345 80.2192 290.345 76.9048C290.345 73.5668 289.86 70.5483 288.889 67.8494C287.942 65.1269 286.498 62.9607 284.557 61.3509C282.616 59.741 280.201 58.9361 277.312 58.9361C274.353 58.9361 271.891 59.741 269.926 61.3509C267.985 62.9607 266.529 65.1269 265.558 67.8494C264.611 70.5483 264.138 73.5668 264.138 76.9048C264.138 80.2192 264.611 83.2259 265.558 85.9247C266.529 88.6236 267.985 90.7779 269.926 92.3878C271.891 93.974 274.353 94.767 277.312 94.767ZM327.144 72.0398V104H314.289V49.4545H326.576V58.723H327.215C328.47 55.669 330.47 53.2424 333.216 51.4432C335.986 49.6439 339.407 48.7443 343.479 48.7443C347.243 48.7443 350.522 49.5492 353.316 51.1591C356.133 52.7689 358.311 55.1009 359.85 58.1548C361.412 61.2088 362.182 64.9138 362.158 69.2699V104H349.303V71.2585C349.303 67.6127 348.356 64.7599 346.462 62.7003C344.592 60.6406 341.999 59.6108 338.685 59.6108C336.436 59.6108 334.435 60.108 332.684 61.1023C330.955 62.0729 329.594 63.4815 328.6 65.3281C327.629 67.1747 327.144 69.4119 327.144 72.0398ZM399.019 105.065C393.574 105.065 388.898 103.87 384.992 101.479C381.109 99.0876 378.114 95.785 376.007 91.571C373.924 87.3333 372.882 82.4564 372.882 76.9403C372.882 71.4006 373.948 66.5118 376.078 62.2741C378.209 58.0128 381.216 54.6984 385.098 52.331C389.005 49.9399 393.621 48.7443 398.948 48.7443C403.375 48.7443 407.293 49.5611 410.702 51.1946C414.135 52.8045 416.869 55.089 418.905 58.0483C420.941 60.9839 422.101 64.4167 422.385 68.3466H410.098C409.601 65.7187 408.417 63.5289 406.547 61.777C404.701 60.0014 402.227 59.1136 399.125 59.1136C396.498 59.1136 394.189 59.8239 392.201 61.2443C390.212 62.6411 388.661 64.6534 387.549 67.2812C386.46 69.9091 385.915 73.0578 385.915 76.7273C385.915 80.4441 386.46 83.6402 387.549 86.3153C388.638 88.9669 390.165 91.0147 392.13 92.4588C394.118 93.8793 396.45 94.5895 399.125 94.5895C401.019 94.5895 402.712 94.2344 404.203 93.5241C405.719 92.7902 406.985 91.7367 408.003 90.3636C409.021 88.9905 409.72 87.3215 410.098 85.3565H422.385C422.078 89.2154 420.941 92.6364 418.976 95.6193C417.011 98.5786 414.336 100.899 410.951 102.58C407.565 104.237 403.588 105.065 399.019 105.065ZM445.796 31.2727V104H432.941V31.2727H445.796ZM474.711 105.101C471.255 105.101 468.142 104.485 465.372 103.254C462.626 102 460.448 100.153 458.838 97.7145C457.252 95.276 456.458 92.2694 456.458 88.6946C456.458 85.617 457.027 83.072 458.163 81.0597C459.299 79.0473 460.85 77.4375 462.815 76.2301C464.78 75.0227 466.993 74.1113 469.456 73.4957C471.941 72.8565 474.51 72.3949 477.162 72.1108C480.358 71.7794 482.95 71.4834 484.939 71.223C486.927 70.9389 488.371 70.5128 489.271 69.9446C490.194 69.3527 490.656 68.4413 490.656 67.2102V66.9972C490.656 64.322 489.863 62.2505 488.277 60.7827C486.69 59.3149 484.406 58.581 481.423 58.581C478.274 58.581 475.777 59.2675 473.93 60.6406C472.107 62.0137 470.876 63.6354 470.237 65.5057L458.234 63.8011C459.181 60.4867 460.743 57.7169 462.922 55.4915C465.1 53.2424 467.763 51.5616 470.912 50.4489C474.06 49.3125 477.54 48.7443 481.352 48.7443C483.98 48.7443 486.596 49.0521 489.2 49.6676C491.804 50.2831 494.183 51.3011 496.338 52.7216C498.492 54.1184 500.22 56.0241 501.522 58.4389C502.848 60.8537 503.511 63.8722 503.511 67.4943V104H491.153V96.5071H490.727C489.946 98.0223 488.845 99.4427 487.424 100.768C486.028 102.071 484.264 103.124 482.133 103.929C480.026 104.71 477.552 105.101 474.711 105.101ZM478.049 95.6548C480.63 95.6548 482.867 95.1458 484.761 94.1278C486.655 93.0862 488.111 91.7131 489.129 90.0085C490.171 88.304 490.691 86.4455 490.691 84.4332V78.0057C490.289 78.3371 489.602 78.6449 488.632 78.929C487.685 79.2131 486.619 79.4616 485.436 79.6747C484.252 79.8878 483.08 80.0772 481.92 80.2429C480.76 80.4086 479.754 80.5507 478.902 80.669C476.984 80.9294 475.268 81.3556 473.752 81.9474C472.237 82.5393 471.042 83.3679 470.166 84.4332C469.29 85.4749 468.852 86.8243 468.852 88.4815C468.852 90.849 469.716 92.6364 471.444 93.8438C473.172 95.0511 475.374 95.6548 478.049 95.6548ZM559.548 63.8722L547.829 65.1506C547.498 63.9669 546.918 62.8542 546.089 61.8125C545.284 60.7708 544.195 59.9304 542.822 59.2912C541.449 58.652 539.768 58.3324 537.779 58.3324C535.104 58.3324 532.855 58.9124 531.032 60.0724C529.233 61.2325 528.345 62.7358 528.369 64.5824C528.345 66.1686 528.925 67.4588 530.109 68.4531C531.316 69.4474 533.305 70.2642 536.075 70.9034L545.379 72.892C550.54 74.0047 554.375 75.7685 556.885 78.1832C559.418 80.598 560.696 83.7585 560.72 87.6648C560.696 91.0975 559.69 94.1278 557.701 96.7557C555.736 99.3598 553.002 101.396 549.498 102.864C545.994 104.331 541.97 105.065 537.424 105.065C530.748 105.065 525.374 103.669 521.302 100.875C517.23 98.0578 514.804 94.1397 514.022 89.1207L526.558 87.9134C527.126 90.3755 528.333 92.2339 530.18 93.4886C532.027 94.7434 534.43 95.3707 537.389 95.3707C540.443 95.3707 542.893 94.7434 544.74 93.4886C546.61 92.2339 547.545 90.6832 547.545 88.8366C547.545 87.2741 546.941 85.9839 545.734 84.9659C544.55 83.9479 542.704 83.1667 540.194 82.6222L530.89 80.669C525.658 79.58 521.788 77.7453 519.278 75.1648C516.769 72.5606 515.526 69.2699 515.549 65.2926C515.526 61.9309 516.437 59.0189 518.284 56.5568C520.154 54.071 522.746 52.1534 526.061 50.804C529.399 49.4309 533.246 48.7443 537.602 48.7443C543.994 48.7443 549.025 50.1056 552.694 52.8281C556.387 55.5507 558.672 59.232 559.548 63.8722ZM614.431 63.8722L602.712 65.1506C602.381 63.9669 601.801 62.8542 600.972 61.8125C600.167 60.7708 599.078 59.9304 597.705 59.2912C596.332 58.652 594.651 58.3324 592.662 58.3324C589.987 58.3324 587.738 58.9124 585.915 60.0724C584.116 61.2325 583.228 62.7358 583.252 64.5824C583.228 66.1686 583.808 67.4588 584.992 68.4531C586.199 69.4474 588.188 70.2642 590.958 70.9034L600.262 72.892C605.423 74.0047 609.258 75.7685 611.767 78.1832C614.301 80.598 615.579 83.7585 615.603 87.6648C615.579 91.0975 614.573 94.1278 612.584 96.7557C610.619 99.3598 607.885 101.396 604.381 102.864C600.877 104.331 596.853 105.065 592.307 105.065C585.631 105.065 580.257 103.669 576.185 100.875C572.113 98.0578 569.686 94.1397 568.905 89.1207L581.441 87.9134C582.009 90.3755 583.216 92.2339 585.063 93.4886C586.909 94.7434 589.312 95.3707 592.272 95.3707C595.326 95.3707 597.776 94.7434 599.623 93.4886C601.493 92.2339 602.428 90.6832 602.428 88.8366C602.428 87.2741 601.824 85.9839 600.617 84.9659C599.433 83.9479 597.587 83.1667 595.077 82.6222L585.773 80.669C580.541 79.58 576.67 77.7453 574.161 75.1648C571.651 72.5606 570.408 69.2699 570.432 65.2926C570.408 61.9309 571.32 59.0189 573.167 56.5568C575.037 54.071 577.629 52.1534 580.944 50.804C584.282 49.4309 588.129 48.7443 592.485 48.7443C598.877 48.7443 603.908 50.1056 607.577 52.8281C611.27 55.5507 613.555 59.232 614.431 63.8722Z" fill="black"/>
</svg>
