<svg width="129" height="129" viewBox="0 0 129 129" fill="none" xmlns="http://www.w3.org/2000/svg">
<path fill-rule="evenodd" clip-rule="evenodd" d="M12.5831 33.8788C8.30927 36.7435 5.74463 41.5501 5.74463 46.6953V82.6628C5.74463 87.8079 8.30927 92.6145 12.5831 95.4793L55.8204 124.461C61.0178 127.945 67.8048 127.945 73.0023 124.461L116.24 95.4793C120.513 92.6145 123.078 87.8079 123.078 82.6628V46.6953C123.078 41.5501 120.513 36.7435 116.24 33.8788L73.0022 4.89662C67.8048 1.41272 61.0178 1.41272 55.8204 4.89662L12.5831 33.8788ZM24.2651 50.1665C23.5082 49.7124 22.5264 49.9579 22.0723 50.7149C21.6182 51.4718 21.8637 52.4536 22.6206 52.9077L62.8129 77.02V105.936C62.8129 106.819 63.5285 107.534 64.4112 107.534C65.2939 107.534 66.0095 106.819 66.0095 105.936V77.02L106.202 52.9077C106.959 52.4536 107.204 51.4718 106.75 50.7149C106.296 49.9579 105.314 49.7124 104.557 50.1665L64.4112 74.2511L24.2651 50.1665Z" fill="#34DAFF"/>
</svg>
