<svg width="932" height="198" viewBox="0 0 932 198" fill="none" xmlns="http://www.w3.org/2000/svg">
<path d="M326.343 113.98L320.841 129.57H320.382C319.465 126.055 317.784 120.705 315.032 114.285L285.532 40.1517H256.643V158.307H275.749V85.3961C275.749 80.8105 275.749 75.6135 275.596 69.1937C275.443 65.9838 275.138 63.5382 274.985 61.7039H275.443C276.361 66.2895 277.431 69.6523 278.195 71.7922L313.657 158.001H327.108L362.264 71.028C363.028 69.0409 363.792 65.0667 364.557 61.7039H365.015C364.557 70.4165 364.251 78.212 364.098 82.9505V157.848H384.427V39.846H356.608L326.343 113.98ZM403.687 73.1679H423.558V157.848H403.687V73.1679ZM413.775 37.4004C410.412 37.4004 407.661 38.6232 405.368 40.7631C403.075 42.9031 401.853 45.6544 401.853 49.0172C401.853 52.2271 403.075 54.9784 405.368 57.1184C407.661 59.2583 410.412 60.3283 413.775 60.3283C417.138 60.3283 420.042 59.1054 422.182 57.1184C424.475 54.9784 425.698 52.2271 425.698 49.0172C425.698 45.8073 424.475 43.0559 422.182 40.7631C420.195 38.6232 417.291 37.4004 413.775 37.4004ZM494.023 72.4036C490.354 71.6394 486.533 71.1808 482.864 71.1808C473.846 71.1808 465.592 73.1679 458.714 77.1421C451.835 81.1162 446.333 86.6189 442.817 93.4973C439.149 100.529 437.314 108.63 437.314 117.954C437.314 126.055 439.149 133.239 442.664 139.812C446.18 146.231 451.071 151.428 457.644 154.944C463.911 158.46 471.248 160.294 479.502 160.294C488.979 160.294 497.08 158.307 503.5 154.638L503.652 154.485V136.143L502.888 136.755C499.984 138.894 496.621 140.729 493.258 141.799C489.743 143.022 486.533 143.633 483.782 143.633C475.833 143.633 469.566 141.34 465.134 136.296C460.548 131.405 458.255 124.679 458.255 116.272C458.255 107.56 460.548 100.681 465.286 95.6372C470.025 90.5931 476.292 87.9946 483.934 87.9946C490.354 87.9946 496.927 90.1345 502.888 94.4144L503.652 95.0258V75.6135L503.5 75.4607C500.901 74.3907 497.997 73.1679 494.023 72.4036ZM559.596 71.7922C554.705 71.7922 550.12 73.3207 546.145 76.5306C542.783 79.282 540.49 83.2562 538.503 87.9946H538.35V73.1679H518.479V157.848H538.35V114.591C538.35 107.254 539.878 101.14 543.241 96.7072C546.604 92.1216 550.884 89.8288 556.081 89.8288C557.915 89.8288 559.749 90.2874 562.042 90.5931C564.182 91.2045 565.711 91.8159 566.781 92.5802L567.545 93.1916V73.3207L567.086 73.1679C565.711 72.2508 562.959 71.7922 559.596 71.7922ZM613.706 71.3337C599.797 71.3337 588.638 75.4607 580.843 83.5619C572.895 91.6631 569.073 102.821 569.073 116.884C569.073 130.029 573.047 140.729 580.69 148.524C588.333 156.167 598.727 160.141 611.719 160.141C625.323 160.141 636.176 156.014 643.971 147.76C651.919 139.506 655.741 128.501 655.741 114.897C655.741 101.446 652.072 90.7459 644.582 82.9505C637.398 75.155 626.852 71.3337 613.706 71.3337ZM629.603 136.449C625.934 141.187 620.126 143.48 612.942 143.48C605.758 143.48 599.95 141.187 595.823 136.143C591.695 131.405 589.708 124.526 589.708 115.814C589.708 106.795 591.848 99.9171 595.823 95.0258C599.95 90.1345 605.605 87.6889 612.789 87.6889C619.82 87.6889 625.323 89.9817 629.297 94.7201C633.271 99.4585 635.411 106.337 635.411 115.355C635.106 124.526 633.424 131.71 629.603 136.449ZM700.068 108.324C693.801 105.725 689.827 103.738 687.993 102.057C686.464 100.529 685.7 98.3886 685.7 95.6372C685.7 93.3444 686.617 91.0516 688.91 89.5231C691.203 87.9946 693.801 87.2303 697.622 87.2303C700.985 87.2303 704.501 87.8417 707.863 88.7588C711.226 89.676 714.283 91.0516 716.729 92.8859L717.493 93.4973V74.8493L717.035 74.6964C714.742 73.7793 711.685 72.8622 708.016 72.0979C704.348 71.4865 700.985 71.1808 698.234 71.1808C688.757 71.1808 680.961 73.4736 674.847 78.5177C668.733 83.2562 665.829 89.676 665.829 97.1657C665.829 101.14 666.44 104.656 667.816 107.56C669.192 110.464 671.179 113.215 673.93 115.508C676.682 117.648 680.656 120.094 686.158 122.386C690.744 124.374 694.26 125.902 696.399 127.125C698.539 128.348 699.915 129.723 700.985 130.793C701.749 132.016 702.208 133.545 702.208 135.532C702.208 141.187 697.928 143.939 689.215 143.939C685.853 143.939 682.337 143.327 678.21 141.952C674.083 140.576 670.262 138.589 667.052 136.296L666.288 135.685V155.097L666.746 155.25C669.65 156.625 673.166 157.543 677.446 158.612C681.726 159.377 685.547 159.988 688.91 159.988C699.151 159.988 707.558 157.695 713.519 152.651C719.633 147.76 722.843 141.493 722.843 133.392C722.843 127.736 721.314 122.692 717.952 118.871C713.519 115.202 708.016 111.381 700.068 108.324ZM775.271 71.3337C761.362 71.3337 750.204 75.4607 742.408 83.5619C734.613 91.6631 730.639 102.821 730.639 116.884C730.639 130.029 734.613 140.729 742.255 148.524C749.898 156.167 760.292 160.141 773.284 160.141C786.888 160.141 797.741 156.014 805.536 147.76C813.485 139.506 817.306 128.501 817.306 114.897C817.306 101.446 813.637 90.7459 806.148 82.9505C798.964 75.155 788.417 71.3337 775.271 71.3337ZM791.015 136.449C787.347 141.187 781.538 143.48 774.354 143.48C767.017 143.48 761.362 141.187 757.235 136.143C753.108 131.405 751.121 124.526 751.121 115.814C751.121 106.795 753.261 99.9171 757.235 95.0258C761.362 90.1345 767.017 87.6889 774.202 87.6889C781.08 87.6889 786.735 89.9817 790.71 94.7201C794.684 99.4585 796.824 106.337 796.824 115.355C796.824 124.526 794.837 131.71 791.015 136.449ZM923.539 89.5231V73.1679H903.515V48.1001L902.903 48.2529L883.95 53.9085L883.491 54.0613V73.1679H853.532V62.4682C853.532 57.5769 854.755 53.7556 856.895 51.31C859.035 48.8643 862.245 47.6415 866.219 47.6415C868.97 47.6415 871.874 48.2529 875.084 49.6286L875.848 50.0871V32.8148L875.39 32.6619C872.639 31.7448 868.97 31.1334 864.232 31.1334C858.27 31.1334 853.073 32.5091 848.335 34.8019C843.597 37.4004 840.081 40.916 837.482 45.6544C834.884 50.24 833.508 55.437 833.508 61.3982V73.1679H819.599V89.3703H833.508V157.848H853.532V89.5231H883.491V133.086C883.491 150.97 891.898 159.988 908.712 159.988C911.463 159.988 914.367 159.53 917.119 159.071C920.023 158.46 922.163 157.695 923.386 157.084L923.539 156.931V140.576L922.774 141.187C921.551 141.952 920.481 142.563 918.647 143.022C917.119 143.48 915.743 143.633 914.673 143.633C910.699 143.633 907.948 142.716 905.96 140.423C904.126 138.283 903.209 134.767 903.209 129.57V89.5231H923.539Z" fill="#737373"/>
<path d="M0.461426 0.410034H94.1601V94.1087H0.461426V0.410034Z" fill="#737373"/>
<path d="M103.943 0.410034H197.642V94.1087H103.943V0.410034Z" fill="#737373"/>
<path d="M0.461426 103.891H94.1601V197.59H0.461426V103.891Z" fill="#737373"/>
<path d="M103.943 103.891H197.642V197.59H103.943V103.891Z" fill="#737373"/>
</svg>
