<svg width="698" height="198" viewBox="0 0 698 198" fill="none" xmlns="http://www.w3.org/2000/svg">
<g clip-path="url(#clip0_87_1467)">
<path d="M119.634 130.289C117.881 129.749 117.746 127.321 119.769 126.512C154.566 110.058 152.273 72.698 152.273 72.698C152.138 34.7987 124.354 -0.2682 79.5767 0.00154616C29.6738 0.271292 -0.267939 39.5194 0.00180726 85.9156C0.406426 167.109 62.4479 198.13 81.7347 197.995L81.5998 165.76C81.5998 160.635 81.5998 156.589 84.702 156.589C84.702 156.589 104.663 176.55 126.782 176.55C161.31 176.415 173.044 147.417 173.044 147.417L119.634 130.289ZM79.7116 105.472C62.0432 105.607 47.7468 91.3104 47.6119 73.6422C47.477 55.9738 61.7736 41.6772 79.4419 41.5423C97.1103 41.4074 111.407 55.704 111.542 73.3724C111.542 91.0407 97.245 105.337 79.7116 105.472Z" fill="#737373"/>
<path fill-rule="evenodd" clip-rule="evenodd" d="M561.341 32.6416C561.341 25.2235 567.277 19.2892 574.694 19.2892C582.112 19.2892 588.047 25.3584 588.047 32.6416C588.047 40.0595 582.112 45.9941 574.694 45.9941C567.277 45.9941 561.341 40.0595 561.341 32.6416ZM563.904 58.5376H585.483V149.172H563.904V58.5376ZM675.446 26.9777V57.0542V70.2718C672.209 65.0117 662.363 55.7056 645.099 55.7056C620.552 55.7056 599.512 74.318 599.512 103.72C599.512 130.155 617.45 152.005 645.369 152.005C663.846 152.005 672.477 142.968 676.389 136.09V149.172H697.025V26.9777H675.446ZM668.971 123.412C663.846 128.537 656.699 131.639 648.875 131.639C632.151 131.639 621.091 119.096 621.091 103.72V103.585C621.091 89.4237 631.342 75.8016 649.01 75.8016C656.832 75.8016 663.711 78.7689 668.701 83.7591C673.691 88.6145 676.793 95.3582 676.793 103.181C677.064 111.138 674.097 118.287 668.971 123.412ZM472.462 71.7545C478.935 62.5831 489.59 55.7046 504.562 55.7046C536.257 55.7046 549.743 82.5442 549.61 104.663C549.61 130.424 531.266 152.004 504.696 152.004C487.029 152.004 477.452 142.967 473.811 137.168V149.172V180.867H452.231V58.537H472.462V71.7545ZM500.515 131.773C516.97 131.773 528.029 118.69 528.029 103.854H528.164V103.719C528.164 90.6366 518.723 75.8006 500.38 75.8006C492.423 75.8006 485.68 78.9028 480.689 84.0279C475.833 89.0182 472.866 96.0316 472.866 103.989C472.866 111.812 475.833 118.69 480.823 123.681C485.815 128.671 492.693 131.773 500.515 131.773ZM411.768 71.7545C407.858 64.4713 397.742 55.7046 381.152 55.7046C355.661 55.7046 335.026 75.1263 335.026 103.719C335.026 129.345 352.02 152.004 381.152 152.004C393.83 152.004 405.969 146.744 411.768 136.089V149.171H433.348V58.537H411.768V71.7545ZM411.903 104.529C411.633 108.979 410.554 113.295 408.397 117.207C404.215 125.434 396.393 131.773 384.254 131.773C364.832 131.773 356.74 115.453 356.74 104.259V104.124C356.74 90.0972 366.585 75.9355 384.119 75.9355C397.203 75.9355 405.564 83.3536 409.34 91.9855C411.229 95.7618 412.038 100.213 411.903 104.529ZM278.245 26.8423C306.433 26.8423 325.449 40.7342 325.449 67.1693C325.449 87.8049 311.018 101.832 290.383 105.203L332.194 143.507C328.283 148.363 322.618 150.251 316.953 150.251C305.353 150.251 298.071 145.8 288.361 134.606C282.29 127.727 265.837 108.71 265.837 108.71C265.837 108.71 264.082 106.148 261.251 106.148H260.306V149.037H235.76V26.8423H278.245ZM273.794 45.185H260.576V89.1536H273.794C287.416 89.1536 301.982 83.3541 301.982 67.3042C301.982 52.3333 290.653 45.185 273.794 45.185Z" fill="#737373"/>
</g>
<defs>
<clipPath id="clip0_87_1467">
<rect width="697.024" height="198" fill="white"/>
</clipPath>
</defs>
</svg>
